<svg id="Layer_1" data-name="Layer 1" xmlns="http://www.w3.org/2000/svg" width="18" height="18" viewBox="0 0 18 18">
  <defs>
    <style>
      .cls-1 {
        fill: #fff;
      }
    </style>
  </defs>
  <g id="Layer_1-2" data-name="Layer_1">
    <path id="Path_68" data-name="Path 68" class="cls-1" d="M.3,10.84c-.46-1-.35-1.46.06-1.65a4.09,4.09,0,0,1,2.36.38c.27.09.52.18.74.24L7.52,7.47,6.46,6.41l-.32.19a.75.75,0,0,1-.53.07l0-.18,0,.18h0a.69.69,0,0,1-.41-.32.61.61,0,0,1,0-.69,1,1,0,0,1,.26-.25L3.17,3h0l0-.06c-.9-1.92,1-1.52,1-1.52h0l.06,0,6.76,3.9c3-1.7,5-2.51,6.1-2.63.49-.06.8,0,.93.25s0,.54-.24.94a20.23,20.23,0,0,1-5.33,4v7.82h0a.31.31,0,0,1,0,.08c-.07.18-.64,1.69-1.79,0h0a.09.09,0,0,1,0-.07l-.92-3.14a1.06,1.06,0,0,1-.35.09.59.59,0,0,1-.6-.34.7.7,0,0,1,.26-1l.32-.18L8.85,9.78,4.79,12.12c0,.22-.1.49-.16.76-.18.9-.38,1.92-.84,2.24s-.85.11-1.48-.79h0a.2.2,0,0,1,0-.11c0-.35,0-.67,0-.93a2.57,2.57,0,0,0-.1-1.2c-.12-.22-.41-.37-1-.69l-.82-.46.1-.16-.1.16a.16.16,0,0,1-.08-.1ZM13.65,4.62a.19.19,0,0,0-.07.26.18.18,0,0,0,.25.07l.1-.06a.36.36,0,0,1,.49.13h0a.37.37,0,0,1-.14.49l-.1.05a.19.19,0,0,0-.06.26.18.18,0,0,0,.25.07l.1-.06a.72.72,0,0,0,.27-1h0a.73.73,0,0,0-1-.27l-.09,0ZM5.08,10.2a.19.19,0,0,0-.07.26.18.18,0,0,0,.26.06l7.59-4.38a.18.18,0,0,0,.07-.25.18.18,0,0,0-.25-.07h0Z"/>
    <path id="Path_69" data-name="Path 69" class="cls-1" d="M17.94,3c.13.23,0,.54-.24.94a20.23,20.23,0,0,1-5.33,4v7.82h0a.31.31,0,0,1,0,.08c-.07.18-.64,1.69-1.79,0h0a.09.09,0,0,1,0-.07l-.92-3.14a1.06,1.06,0,0,1-.35.09.59.59,0,0,1-.6-.34.7.7,0,0,1,.26-1l.32-.18L8.85,9.78,4.79,12.12c0,.22-.1.49-.16.76-.18.9-.38,1.92-.84,2.24s-.85.11-1.48-.79h0a.2.2,0,0,1,0-.11c0-.35,0-.67,0-.93a2.57,2.57,0,0,0-.1-1.2L5,10.46a.18.18,0,0,0,.26.06l7.59-4.38a.18.18,0,0,0,.07-.25h0L14.43,5h0a.37.37,0,0,1-.14.49l-.1.05a.19.19,0,0,0-.06.26.18.18,0,0,0,.25.07l.1-.06a.72.72,0,0,0,.27-1h0L17.94,3Z"/>
  </g>
</svg>
