<svg id="Layer_1" data-name="Layer 1" xmlns="http://www.w3.org/2000/svg" width="40" height="40" viewBox="0 0 40 40">
  <defs>
    <style>
      .cls-1 {
        fill: #013042;
      }
    </style>
  </defs>
  <g id="Layer_1-2" data-name="Layer_1">
    <path id="Path_68" data-name="Path 68" class="cls-1" d="M.67,24.09c-1-2.18-.79-3.25.12-3.68,1.14-.53,3.33.21,5.25.87.6.2,1.16.39,1.65.53l9-5.2-2.35-2.36-.71.41a1.52,1.52,0,0,1-1.18.15l.11-.4-.11.4h0a1.51,1.51,0,0,1-.91-.71,1.33,1.33,0,0,1,0-1.53,2.21,2.21,0,0,1,.58-.56L7,6.7H7A.64.64,0,0,1,7,6.57C5,2.31,9.07,3.21,9.08,3.21h0a.29.29,0,0,1,.13,0l15,8.68c6.59-3.78,11.2-5.59,13.55-5.86,1.08-.13,1.78.08,2.07.57s.11,1.2-.54,2.08c-1.41,1.9-5.28,5-11.85,8.8V34.91h0a.35.35,0,0,1,0,.17c-.14.41-1.43,3.75-4,.1h0A.47.47,0,0,1,23.4,35l-2-7a2.05,2.05,0,0,1-.77.21,1.32,1.32,0,0,1-1.33-.77,1.55,1.55,0,0,1,.57-2.12l.71-.41-.87-3.21-9,5.2c-.12.48-.23,1.07-.36,1.69-.4,2-.85,4.26-1.88,5-.83.58-1.88.24-3.27-1.76h0a.38.38,0,0,1-.07-.26c0-.77,0-1.47,0-2.07a5.82,5.82,0,0,0-.23-2.66C4.6,26.39,4,26,2.67,25.33c-.52-.29-1.15-.63-1.82-1L1.06,24l-.21.36a.39.39,0,0,1-.18-.22ZM30.32,10.27a.43.43,0,0,0-.15.57.41.41,0,0,0,.57.15l.22-.12a.8.8,0,0,1,1.09.27.05.05,0,0,0,0,0,.81.81,0,0,1-.31,1.08l-.22.13a.42.42,0,0,0-.15.56.43.43,0,0,0,.57.16l.22-.13a1.64,1.64,0,0,0,.61-2.21v0h0a1.65,1.65,0,0,0-2.24-.6l-.22.12Zm-19,12.4a.42.42,0,0,0-.16.57.43.43,0,0,0,.57.15l16.87-9.74a.41.41,0,0,0,.15-.57.4.4,0,0,0-.56-.15h0Z"/>
    <path id="Path_69" data-name="Path 69" class="cls-1" d="M39.87,6.65c.28.5.11,1.2-.54,2.08-1.41,1.9-5.28,5-11.85,8.8V34.91h0a.35.35,0,0,1,0,.17c-.14.41-1.43,3.75-4,.1h0A.44.44,0,0,1,23.4,35l-2-7a2.05,2.05,0,0,1-.77.21,1.32,1.32,0,0,1-1.33-.77,1.55,1.55,0,0,1,.57-2.12l.71-.41-.86-3.21-9,5.2c-.12.48-.23,1.07-.36,1.69-.39,2-.85,4.26-1.88,5-.83.58-1.88.24-3.27-1.76h0a.38.38,0,0,1-.07-.26c0-.77,0-1.47,0-2.07a5.82,5.82,0,0,0-.23-2.66l6.27-3.62a.43.43,0,0,0,.57.15l16.87-9.74a.41.41,0,0,0,.15-.57h0l3.33-1.92v0a.81.81,0,0,1-.31,1.08l-.22.13a.42.42,0,0,0-.15.56.43.43,0,0,0,.57.16l.22-.13a1.64,1.64,0,0,0,.61-2.21v0l7.09-4.1Z"/>
  </g>
</svg>
