<svg id="Layer_1" data-name="Layer 1" xmlns="http://www.w3.org/2000/svg" width="18" height="18" viewBox="0 0 18 18">
  <defs>
    <style>
      .cls-1 {
        fill: #fff;
      }
    </style>
  </defs>
  <path class="cls-1" d="M16.71,15.43H15.43v1.28a1.29,1.29,0,1,1-2.57,0V15.43H11.57a1.29,1.29,0,0,1,0-2.57h1.29V11.57a1.29,1.29,0,0,1,2.57,0v1.29h1.28a1.29,1.29,0,1,1,0,2.57Zm-6.24-5a3.82,3.82,0,0,0-.18,7.29V18h-9A1.29,1.29,0,0,1,0,16.71c0-2.57,2.49-5,5-5.92A5.11,5.11,0,0,1,2.57,6.43V5.14a5.15,5.15,0,0,1,10.29,0V6.43a5,5,0,0,1-.33,1.69A3.79,3.79,0,0,0,10.47,10.47Z"/>
</svg>
