<svg id="Layer_1" data-name="Layer 1" xmlns="http://www.w3.org/2000/svg" width="40" height="40" viewBox="0 0 40 40">
  <defs>
    <style>
      .cls-1 {
        fill: #013042;
      }
    </style>
  </defs>
  <g>
    <path class="cls-1" d="M0,30.53v4.21a2.1,2.1,0,0,0,2.11,2.1h2.1v1h-1a1.06,1.06,0,0,0,0,2.11H7.37a1.06,1.06,0,0,0,0-2.11h-1v-1h2.1a2.11,2.11,0,0,0,2.11-2.1V30.53a2.11,2.11,0,0,0-2.11-2.11H2.11A2.1,2.1,0,0,0,0,30.53Zm14.74,0v4.21a2.1,2.1,0,0,0,2.1,2.1H19v1H17.89a1.06,1.06,0,0,0,0,2.11h4.22a1.06,1.06,0,0,0,0-2.11H21.05v-1h2.11a2.1,2.1,0,0,0,2.1-2.1V30.53a2.1,2.1,0,0,0-2.1-2.11H16.84A2.1,2.1,0,0,0,14.74,30.53Zm14.73,0v4.21a2.11,2.11,0,0,0,2.11,2.1h2.1v1h-1a1.06,1.06,0,0,0,0,2.11h4.21a1.06,1.06,0,0,0,0-2.11H35.79v-1h2.1A2.1,2.1,0,0,0,40,34.74V30.53a2.1,2.1,0,0,0-2.11-2.11H31.58A2.11,2.11,0,0,0,29.47,30.53Zm-21-20a1.05,1.05,0,0,0-1-1.06h-1V8.42h2.1a2.11,2.11,0,0,0,2.11-2.1V2.11A2.11,2.11,0,0,0,8.42,0H2.11A2.1,2.1,0,0,0,0,2.11V6.32a2.1,2.1,0,0,0,2.11,2.1h2.1V9.47h-1a1.06,1.06,0,0,0,0,2.11H7.37A1,1,0,0,0,8.42,10.53Zm14.74,0a1.05,1.05,0,0,0-1.05-1.06H21.05V8.42h2.11a2.1,2.1,0,0,0,2.1-2.1V2.11A2.1,2.1,0,0,0,23.16,0H16.84a2.1,2.1,0,0,0-2.1,2.11V6.32a2.1,2.1,0,0,0,2.1,2.1H19V9.47H17.89a1.06,1.06,0,0,0,0,2.11h4.22A1,1,0,0,0,23.16,10.53ZM37.89,0H31.58a2.11,2.11,0,0,0-2.11,2.11V6.32a2.11,2.11,0,0,0,2.11,2.1h2.1V9.47h-1a1.06,1.06,0,0,0,0,2.11h4.21a1.06,1.06,0,0,0,0-2.11H35.79V8.42h2.1A2.1,2.1,0,0,0,40,6.32V2.11A2.1,2.1,0,0,0,37.89,0Z"/>
    <path class="cls-1" d="M33.68,12.63H27.37a1,1,0,0,0-1.05,1v2.11H21.05V12.63a1.05,1.05,0,1,0-2.1,0v3.16H13.68V13.68a1,1,0,0,0-1-1H6.32a1.06,1.06,0,0,0-2.11,0v1a1.05,1.05,0,0,0,1,1.06h6.32v1a4.21,4.21,0,1,0,0,8.42v1.05H5.26a1.05,1.05,0,0,0-1,1.06v1.05a1.06,1.06,0,0,0,2.11,0h6.31a1,1,0,0,0,1-1.05V24.21H19v3.16a1.05,1.05,0,1,0,2.1,0V24.21h5.27v2.11a1,1,0,0,0,1.05,1.05h6.31a1.06,1.06,0,0,0,2.11,0V26.32a1.05,1.05,0,0,0-1-1.06H28.42V24.21a4.21,4.21,0,0,0,0-8.42v-1h6.32a1.05,1.05,0,0,0,1-1.06v-1a1.06,1.06,0,0,0-2.11,0ZM14.74,21.05H12.63a1.05,1.05,0,1,1,0-2.1h2.11a1,1,0,0,1,0,2.1Zm6.31,0H19A1.05,1.05,0,1,1,19,19h2.1a1.05,1.05,0,1,1,0,2.1Zm6.32,0H25.26a1.05,1.05,0,1,1,0-2.1h2.11a1.05,1.05,0,1,1,0,2.1Z"/>
  </g>
</svg>
