<svg id="Layer_1" data-name="Layer 1" xmlns="http://www.w3.org/2000/svg" width="18" height="18" viewBox="0 0 18 18">
  <defs>
    <style>
      .cls-1 {
        fill: #fff;
      }
    </style>
  </defs>
  <g>
    <path class="cls-1" d="M0,13.74v1.89a1,1,0,0,0,1,.95h.94v.47H1.42a.48.48,0,0,0,0,.95h1.9a.48.48,0,0,0,0-.95H2.84v-.47h1a1,1,0,0,0,1-.95V13.74a1,1,0,0,0-1-1H1A.94.94,0,0,0,0,13.74Zm6.63,0v1.89a1,1,0,0,0,1,.95h.95v.47H8.05a.48.48,0,0,0,0,.95H10a.48.48,0,0,0,0-.95H9.47v-.47h.95a1,1,0,0,0,.95-.95V13.74a1,1,0,0,0-.95-1H7.58A1,1,0,0,0,6.63,13.74Zm6.63,0v1.89a1,1,0,0,0,1,.95h.95v.47h-.48a.48.48,0,0,0,0,.95h1.9a.48.48,0,0,0,0-.95h-.47v-.47h.94a1,1,0,0,0,.95-.95V13.74a.94.94,0,0,0-.95-1H14.21A1,1,0,0,0,13.26,13.74Zm-9.47-9a.48.48,0,0,0-.47-.48H2.84V3.79h1a1,1,0,0,0,1-1V1a1,1,0,0,0-1-.95H1A.94.94,0,0,0,0,1V2.84a.94.94,0,0,0,1,1h.94v.47H1.42A.48.48,0,0,0,1,4.74a.47.47,0,0,0,.47.47h1.9A.47.47,0,0,0,3.79,4.74Zm6.63,0A.48.48,0,0,0,10,4.26H9.47V3.79h.95a1,1,0,0,0,.95-1V1A1,1,0,0,0,10.42,0H7.58a1,1,0,0,0-1,1V2.84a1,1,0,0,0,1,1h.95v.47H8.05a.48.48,0,0,0-.47.48.47.47,0,0,0,.47.47H10A.47.47,0,0,0,10.42,4.74ZM17.05,0H14.21a1,1,0,0,0-1,1V2.84a1,1,0,0,0,1,1h.95v.47h-.48a.48.48,0,0,0-.47.48.47.47,0,0,0,.47.47h1.9a.47.47,0,0,0,.47-.47.48.48,0,0,0-.47-.48h-.47V3.79h.94a.94.94,0,0,0,.95-1V1A.94.94,0,0,0,17.05,0Z"/>
    <path class="cls-1" d="M15.16,5.68H12.32a.48.48,0,0,0-.48.48v1H9.47V5.68a.47.47,0,0,0-.94,0V7.11H6.16v-1a.48.48,0,0,0-.48-.48H2.84a.47.47,0,0,0-.47-.47.48.48,0,0,0-.48.47v.48a.48.48,0,0,0,.48.47H5.21v.48a1.89,1.89,0,0,0,0,3.78v.48H2.37a.48.48,0,0,0-.48.47v.48a.48.48,0,0,0,.48.47.47.47,0,0,0,.47-.47H5.68a.48.48,0,0,0,.48-.48v-.95H8.53v1.43a.47.47,0,0,0,.94,0V10.89h2.37v.95a.48.48,0,0,0,.48.48h2.84a.47.47,0,0,0,.47.47.48.48,0,0,0,.48-.47v-.48a.48.48,0,0,0-.48-.47H12.79v-.48a1.89,1.89,0,1,0,0-3.78V6.63h2.84a.48.48,0,0,0,.48-.47V5.68a.48.48,0,0,0-.48-.47A.47.47,0,0,0,15.16,5.68ZM6.63,9.47h-1a.47.47,0,1,1,0-.94h1a.47.47,0,1,1,0,.94Zm2.84,0H8.53a.47.47,0,1,1,0-.94h.94a.47.47,0,1,1,0,.94Zm2.85,0h-1a.47.47,0,1,1,0-.94h1a.47.47,0,0,1,0,.94Z"/>
  </g>
</svg>
