<svg id="Layer_1" data-name="Layer 1" xmlns="http://www.w3.org/2000/svg" width="18" height="18" viewBox="0 0 18 18">
  <defs>
    <style>
      .cls-1 {
        fill: #fff;
      }
    </style>
  </defs>
  <g>
    <path class="cls-1" d="M2.1,17.1V14.7H7.28A.9.9,0,0,0,8,13.25L6.43,11.7,8,10.15A.9.9,0,0,0,7.28,8.7H2.1a.9.9,0,0,0-.9-.9H.9a.9.9,0,0,0-.9.9v8.4a.9.9,0,0,0,.9.9h.3A.9.9,0,0,0,2.1,17.1Z"/>
    <circle class="cls-1" cx="3" cy="17.7" r="0.3"/>
    <path class="cls-1" d="M15.26,12.52h-.95a.89.89,0,0,0-1.18-.44.92.92,0,0,0-.45.44h-.57a2.21,2.21,0,0,1,0-4.42h.49a.3.3,0,0,0,0-.6h-.49a2.81,2.81,0,0,0,0,5.62h.52a.9.9,0,0,0,1.74,0h.89a2.14,2.14,0,0,1,0,4.28H4.2a.29.29,0,0,0-.3.3.3.3,0,0,0,.3.3H15.26a2.74,2.74,0,0,0,0-5.48ZM14.4,0a3.6,3.6,0,0,0-1.26,7l.53.76a.9.9,0,0,0,1.25.2,1,1,0,0,0,.2-.2L15.66,7A3.6,3.6,0,0,0,14.4,0Zm0,5.7a2.1,2.1,0,1,1,2.1-2.1A2.1,2.1,0,0,1,14.4,5.7Z"/>
  </g>
</svg>
