<svg id="Layer_1" data-name="Layer 1" xmlns="http://www.w3.org/2000/svg" width="18" height="18" viewBox="0 0 18 18">
  <defs>
    <style>
      .cls-1 {
        fill: #fff;
      }
    </style>
  </defs>
  <path class="cls-1" d="M8.8,0A1.53,1.53,0,0,0,7.27,1.54a1.5,1.5,0,0,0,.05.37L3.6,4.06a1.53,1.53,0,0,0-2.78.88h0a1.53,1.53,0,0,0,1.24,1.5v4.47a1.53,1.53,0,1,0,1.21,2.72L7.36,16a1.43,1.43,0,0,0-.09.5,1.53,1.53,0,0,0,3.06,0h0a1.86,1.86,0,0,0,0-.34l4.37-2.53a1.52,1.52,0,0,0,.93.32,1.53,1.53,0,0,0,.27-3V6.44a1.53,1.53,0,1,0-1.52-2.37l-4-2.32a1.49,1.49,0,0,0,0-.21A1.53,1.53,0,0,0,8.8,0Zm1.33,2.28,4,2.3a1.34,1.34,0,0,0,0,.35,1.44,1.44,0,0,0,.08.46l-3,1.71v.42a1.9,1.9,0,0,1,0,.25L14.41,5.9a1.51,1.51,0,0,0,.89.54v4.47a1.56,1.56,0,0,0-.92.56l-1.16-.68a2.78,2.78,0,0,1,.25.8l.66.39a1.55,1.55,0,0,0-.07.43,1.5,1.5,0,0,0,.22.78l-4.22,2.44a1.49,1.49,0,0,0-1-.64V14H8.52v1a1.5,1.5,0,0,0-.89.51l-4-2.3a1.47,1.47,0,0,0,.22-.79,1.36,1.36,0,0,0-.08-.49l.48-.27a3,3,0,0,1,.19-.76l-.94.54a1.53,1.53,0,0,0-.9-.52V6.44a1.51,1.51,0,0,0,1-.64l3,1.76h0V6.9L3.84,5.28a2,2,0,0,0,0-.34,1.47,1.47,0,0,0,0-.36L7.55,2.43a1.53,1.53,0,0,0,1,.61V4.21h.56V3A1.53,1.53,0,0,0,10.13,2.29ZM7,4.43a.2.2,0,0,0-.14.18v1.3a.74.74,0,0,0,.34.61v1a1.66,1.66,0,0,0,.59,1.25.85.85,0,0,1-.38.62,5,5,0,0,1-1,.49,2.9,2.9,0,0,0-1.1.7,2.15,2.15,0,0,0-.51,1.52v.12l.11,0a7.2,7.2,0,0,0,7.94,0l.1,0v-.12a2.13,2.13,0,0,0-.5-1.49,3,3,0,0,0-1.09-.67,4.6,4.6,0,0,1-1-.49.88.88,0,0,1-.38-.8,1.58,1.58,0,0,0,.57-1.13V5.86a1.05,1.05,0,0,0-1-1.09h-2a.63.63,0,0,1-.25,0s-.06,0-.06-.12A.19.19,0,0,0,7,4.43Zm1.9,5a.49.49,0,0,1,.5.49.56.56,0,0,1-.15.37s-.13.06-.07.26l.4,2.25-.68.34-.67-.35.41-2.24a.22.22,0,0,0-.07-.26.48.48,0,0,1-.17-.37.5.5,0,0,1,.5-.49Z"/>
</svg>
