<svg id="Layer_1" data-name="Layer 1" xmlns="http://www.w3.org/2000/svg" width="18" height="18" viewBox="0 0 18 18">
  <defs>
    <style>
      .cls-1 {
        fill: #fff;
      }
    </style>
  </defs>
  <path class="cls-1" d="M7.43,12c.21-.2.52.11.32.31l-.91.91a.21.21,0,0,1-.31,0l-.44-.44a.22.22,0,0,1,.31-.31l.28.28L7.43,12Zm7,1.2h.46V12.7h-.46Zm.68.45c-1.31,0-1.12.18-1.12-1.13a.22.22,0,0,1,.22-.22c1.31,0,1.12-.19,1.12,1.12A.22.22,0,0,1,15.12,13.61Zm-.9-4.74h.9a.22.22,0,0,1,.22.22v2.67a.22.22,0,0,1-.22.22h-.9a.22.22,0,0,1-.22-.22V9.09a.22.22,0,0,1,.22-.22Zm.68.44h-.46v2.22h.46ZM4.7,12c.2-.2.52.11.31.31l-.91.91a.22.22,0,0,1-.31,0c-.28-.28-.66-.53-.44-.75s.41.1.6.28L4.7,12ZM14.69,8a.79.79,0,0,0-.37.1l-.25.25L11.43,13a.7.7,0,0,0,.62,1H17.3a.71.71,0,0,0,.61-1.05L15.28,8.38h0A.69.69,0,0,0,14.69,8Zm-.37-.38.13,0V6.56H0v9.62H14.45V14.42H12a1.14,1.14,0,0,1-.93-1.71l2.62-4.55a1.11,1.11,0,0,1,.64-.51Zm-12.52,7H1.08v.72H1.8Zm-.94-.44H2a.22.22,0,0,1,.22.22v1.16a.22.22,0,0,1-.22.22H.86a.22.22,0,0,1-.22-.22V14.4A.22.22,0,0,1,.86,14.18Zm3.68.44H3.82v.72h.72Zm-.94-.44H4.76A.22.22,0,0,1,5,14.4v1.16a.22.22,0,0,1-.22.22H3.6a.22.22,0,0,1-.22-.22V14.4A.22.22,0,0,1,3.6,14.18Zm3.68.44H6.56v.72h.72Zm-.94-.44H7.5a.22.22,0,0,1,.22.22v1.16a.22.22,0,0,1-.22.22H6.34a.22.22,0,0,1-.22-.22V14.4A.22.22,0,0,1,6.34,14.18Zm3.67.44H9.3v.72H10Zm-.93-.44h1.16a.22.22,0,0,1,.22.22v1.16a.22.22,0,0,1-.22.22H9.08a.22.22,0,0,1-.23-.22V14.4A.22.22,0,0,1,9.08,14.18Zm-7.28-2H1.08v.72H1.8Zm-.94-.44H2a.22.22,0,0,1,.22.22v1.16a.22.22,0,0,1-.22.22H.86a.22.22,0,0,1-.22-.22V12A.22.22,0,0,1,.86,11.77Zm9.15.44H9.3v.72H10Zm-.93-.44h1.16a.22.22,0,0,1,.22.22v1.16a.22.22,0,0,1-.22.22H9.08a.22.22,0,0,1-.23-.22V12A.22.22,0,0,1,9.08,11.77ZM1.8,9.8H1.08v.72H1.8ZM.86,9.36H2a.22.22,0,0,1,.22.22v1.16A.22.22,0,0,1,2,11H.86a.22.22,0,0,1-.22-.22V9.58A.22.22,0,0,1,.86,9.36Zm3.68.44H3.82v.72h.72ZM3.6,9.36H4.76A.22.22,0,0,1,5,9.58v1.16a.22.22,0,0,1-.22.22H3.6a.22.22,0,0,1-.22-.22V9.58A.22.22,0,0,1,3.6,9.36Zm3.68.44H6.56v.72h.72Zm-.94-.44H7.5a.22.22,0,0,1,.22.22v1.16A.22.22,0,0,1,7.5,11H6.34a.22.22,0,0,1-.22-.22V9.58A.22.22,0,0,1,6.34,9.36ZM10,9.8H9.3v.72H10Zm-.93-.44h1.16a.22.22,0,0,1,.22.22v1.16a.22.22,0,0,1-.22.22H9.08a.22.22,0,0,1-.23-.22V9.58A.22.22,0,0,1,9.08,9.36ZM1.8,7.4H1.08v.71H1.8ZM.86,7H2a.22.22,0,0,1,.22.22V8.33A.22.22,0,0,1,2,8.56H.86a.22.22,0,0,1-.22-.23V7.17A.22.22,0,0,1,.86,7Zm3.68.45H3.82v.71h.72ZM3.6,7H4.76A.22.22,0,0,1,5,7.17V8.33a.22.22,0,0,1-.22.23H3.6a.22.22,0,0,1-.22-.23V7.17A.22.22,0,0,1,3.6,7Zm3.68.45H6.56v.71h.72ZM6.34,7H7.5a.22.22,0,0,1,.22.22V8.33a.22.22,0,0,1-.22.23H6.34a.22.22,0,0,1-.22-.23V7.17A.22.22,0,0,1,6.34,7ZM10,7.4H9.3v.71H10ZM9.08,7h1.16a.22.22,0,0,1,.22.22V8.33a.22.22,0,0,1-.22.23H9.08a.23.23,0,0,1-.23-.23V7.17A.22.22,0,0,1,9.08,7Zm2-3.55H8.17c0,.52.07.95-.28,1.3A.94.94,0,0,1,6.28,4V3.4H3.4c0,.52.08.95-.27,1.3A.94.94,0,0,1,1.52,4V3.4H0V6.12H14.45V3.4H12.93c0,.52.08.95-.27,1.3A.94.94,0,0,1,11.05,4V3.4ZM12,4.54a.5.5,0,0,0,.5-.5V2.32a.5.5,0,0,0-1,0V4A.5.5,0,0,0,12,4.54Zm-9.53,0A.5.5,0,0,0,3,4V2.32a.5.5,0,0,0-1,0V4A.5.5,0,0,0,2.46,4.54Zm4.77,0a.51.51,0,0,0,.5-.5V2.32a.51.51,0,0,0-1,0V4A.51.51,0,0,0,7.23,4.54Z"/>
</svg>
