<svg id="Layer_1" data-name="Layer 1" xmlns="http://www.w3.org/2000/svg" width="40" height="40" viewBox="0 0 40 40">
  <defs>
    <style>
      .cls-1 {
        fill: #013042;
      }
    </style>
  </defs>
  <path class="cls-1" d="M16.52,26.58a.5.5,0,0,1,.7.7l-2,2a.49.49,0,0,1-.69,0l-1-1a.49.49,0,0,1,.69-.7l.63.63,1.67-1.67ZM32.1,29.25h1v-1h-1Zm1.5,1c-2.91,0-2.48.4-2.48-2.51a.49.49,0,0,1,.49-.49c2.91,0,2.48-.41,2.48,2.5A.49.49,0,0,1,33.6,30.24Zm-2-10.54h2a.49.49,0,0,1,.49.49v5.93a.49.49,0,0,1-.49.5h-2a.49.49,0,0,1-.49-.5V20.19a.49.49,0,0,1,.49-.49Zm1.5,1h-1v4.95h1Zm-22.67,5.9a.49.49,0,0,1,.69.7l-2,2a.51.51,0,0,1-.7,0c-.62-.63-1.46-1.18-1-1.67s.91.21,1.33.63l1.67-1.67Zm22.2-8.73a1.7,1.7,0,0,0-.82.21l-.56.57L25.4,28.77a1.56,1.56,0,0,0,1.37,2.3H38.44a1.56,1.56,0,0,0,1.35-2.33L34,18.63h0a1.54,1.54,0,0,0-1.31-.78ZM31.82,17a1.82,1.82,0,0,1,.29-.08V14.58H0V35.94H32.11V32.05H26.65a2.53,2.53,0,0,1-2.08-3.79l5.84-10.11A2.45,2.45,0,0,1,31.82,17ZM4,32.49H2.41v1.6H4Zm-2.08-1H4.49A.5.5,0,0,1,5,32v2.58a.5.5,0,0,1-.5.49H1.92a.5.5,0,0,1-.5-.49V32A.5.5,0,0,1,1.92,31.51Zm8.17,1H8.49v1.6h1.6ZM8,31.51h2.58a.49.49,0,0,1,.49.49v2.58a.49.49,0,0,1-.49.49H8a.49.49,0,0,1-.49-.49V32A.49.49,0,0,1,8,31.51Zm8.17,1H14.58v1.6h1.59Zm-2.09-1h2.58a.49.49,0,0,1,.49.49v2.58a.49.49,0,0,1-.49.49H14.08a.49.49,0,0,1-.49-.49V32A.49.49,0,0,1,14.08,31.51Zm8.17,1H20.66v1.6h1.59Zm-2.08-1h2.58a.49.49,0,0,1,.49.49v2.58a.49.49,0,0,1-.49.49H20.17a.49.49,0,0,1-.49-.49V32A.49.49,0,0,1,20.17,31.51ZM4,27.14H2.41v1.59H4Zm-2.08-1H4.49a.5.5,0,0,1,.5.49v2.58a.5.5,0,0,1-.5.49H1.92a.5.5,0,0,1-.5-.49V26.65A.5.5,0,0,1,1.92,26.16Zm20.33,1H20.66v1.59h1.59Zm-2.08-1h2.58a.49.49,0,0,1,.49.49v2.58a.49.49,0,0,1-.49.49H20.17a.49.49,0,0,1-.49-.49V26.65A.49.49,0,0,1,20.17,26.16ZM4,21.79H2.41v1.59H4Zm-2.08-1H4.49a.5.5,0,0,1,.5.5v2.57a.5.5,0,0,1-.5.49H1.92a.5.5,0,0,1-.5-.49V21.3A.5.5,0,0,1,1.92,20.8Zm8.17,1H8.49v1.59h1.6ZM8,20.8h2.58a.49.49,0,0,1,.49.5v2.57a.49.49,0,0,1-.49.49H8a.49.49,0,0,1-.49-.49V21.3A.49.49,0,0,1,8,20.8Zm8.17,1H14.58v1.59h1.59Zm-2.09-1h2.58a.49.49,0,0,1,.49.5v2.57a.49.49,0,0,1-.49.49H14.08a.49.49,0,0,1-.49-.49V21.3A.49.49,0,0,1,14.08,20.8Zm8.17,1H20.66v1.59h1.59Zm-2.08-1h2.58a.49.49,0,0,1,.49.5v2.57a.49.49,0,0,1-.49.49H20.17a.49.49,0,0,1-.49-.49V21.3A.49.49,0,0,1,20.17,20.8ZM4,16.44H2.41V18H4Zm-2.08-1H4.49a.5.5,0,0,1,.5.49v2.58a.5.5,0,0,1-.5.49H1.92a.5.5,0,0,1-.5-.49V15.94A.5.5,0,0,1,1.92,15.45Zm8.17,1H8.49V18h1.6ZM8,15.45h2.58a.49.49,0,0,1,.49.49v2.58a.49.49,0,0,1-.49.49H8a.49.49,0,0,1-.49-.49V15.94A.49.49,0,0,1,8,15.45Zm8.17,1H14.58V18h1.59Zm-2.09-1h2.58a.49.49,0,0,1,.49.49v2.58a.49.49,0,0,1-.49.49H14.08a.49.49,0,0,1-.49-.49V15.94A.49.49,0,0,1,14.08,15.45Zm8.17,1H20.66V18h1.59Zm-2.08-1h2.58a.49.49,0,0,1,.49.49v2.58a.49.49,0,0,1-.49.49H20.17a.49.49,0,0,1-.49-.49V15.94A.49.49,0,0,1,20.17,15.45Zm4.38-7.9h-6.4c0,1.17.17,2.11-.61,2.9A2.1,2.1,0,0,1,14,9V7.55H7.57c0,1.17.16,2.11-.62,2.9A2.1,2.1,0,0,1,3.37,9V7.55H0v6H32.11v-6H28.74c0,1.17.17,2.11-.61,2.9A2.1,2.1,0,0,1,24.55,9V7.55Zm2.1,2.53A1.11,1.11,0,0,0,27.76,9V5.15a1.12,1.12,0,0,0-2.23,0V9A1.12,1.12,0,0,0,26.65,10.08Zm-21.18,0A1.11,1.11,0,0,0,6.58,9V5.15a1.12,1.12,0,0,0-2.23,0V9A1.12,1.12,0,0,0,5.47,10.08Zm10.59,0A1.11,1.11,0,0,0,17.17,9V5.15a1.12,1.12,0,0,0-2.23,0V9A1.12,1.12,0,0,0,16.06,10.08Z"/>
</svg>
