<svg id="Layer_1" data-name="Layer 1" xmlns="http://www.w3.org/2000/svg" width="40" height="40" viewBox="0 0 40 40">
  <defs>
    <style>
      .cls-1 {
        fill: #013042;
      }
    </style>
  </defs>
  <path class="cls-1" d="M7.64,20.48v2L.75,20.17A1,1,0,0,1,0,19.05a1,1,0,0,1,1.13-.74.9.9,0,0,1,.21.08ZM4.7,24.24a1,1,0,0,0-1.2.61A.94.94,0,0,0,4.07,26h0l3.55,1.18v-2ZM14,4.12l14.64,5a.95.95,0,1,0,.61-1.79l-14.64-5a1,1,0,0,0-1.2.6A.94.94,0,0,0,14,4.12ZM2.6,11.06a.95.95,0,1,0-.67,1.77l.08,0L5.43,14A.95.95,0,1,0,6,12.2ZM.74,7.92l10.91,3.64a.94.94,0,0,0,.3,0,1,1,0,0,0,1-.93,1,1,0,0,0-.67-.93L1.34,6.12A1,1,0,1,0,.67,7.9Zm14.51,5.42-5.86,2.2L23.82,21l5.86-2.2Zm2.71-1,14.42,5.41,5.87-2.2L23.82,10.13ZM7.64,20.48,15.12,23a.95.95,0,0,1-.28,1.86.81.81,0,0,1-.31-.06l-6.89-2.3v2.75l4.6,1.54A1,1,0,0,1,12.81,28a.94.94,0,0,1-.86.63,1,1,0,0,1-.3,0l-4-1.35V32l15.23,5.69V22.62L7.64,16.91Zm17.13,2.14V37.73L40,32V16.91Z"/>
</svg>
