<svg id="Layer_1" data-name="Layer 1" xmlns="http://www.w3.org/2000/svg" width="18" height="18" viewBox="0 0 18 18">
  <defs>
    <style>
      .cls-1 {
        fill: #fff;
      }
    </style>
  </defs>
  <path class="cls-1" d="M3.44,9.22v.89l-3.1-1a.43.43,0,1,1,.18-.84l.09,0ZM2.12,10.91a.43.43,0,0,0-.54.27.42.42,0,0,0,.25.54h0l1.6.53v-.9ZM6.31,1.85,12.9,4.09a.43.43,0,1,0,.27-.81L6.58,1.05A.42.42,0,0,0,6,1.31a.44.44,0,0,0,.27.55ZM1.17,5a.42.42,0,0,0-.55.24.44.44,0,0,0,.25.56h0l1.54.51.14,0A.44.44,0,0,0,3,5.9a.43.43,0,0,0-.3-.41ZM.33,3.56,5.24,5.2a.32.32,0,0,0,.14,0,.42.42,0,0,0,.13-.83L.6,2.75a.43.43,0,0,0-.3.8ZM6.86,6,4.23,7l6.49,2.44,2.64-1Zm1.22-.45L14.57,8l2.64-1L10.72,4.56ZM3.44,9.22l3.37,1.12a.42.42,0,0,1-.13.83l-.14,0-3.1-1v1.24L5.51,12a.43.43,0,0,1,.25.55.43.43,0,0,1-.38.28l-.14,0-1.8-.6v2.16L10.29,17V10.18L3.44,7.61Zm7.71,1V17L18,14.41V7.61Z"/>
</svg>
