<svg id="Layer_1" data-name="Layer 1" xmlns="http://www.w3.org/2000/svg" width="18" height="18" viewBox="0 0 18 18">
  <defs>
    <style>
      .cls-1 {
        fill: #fff;
      }
    </style>
  </defs>
  <g>
    <path class="cls-1" d="M9,0A5.74,5.74,0,0,0,3.22,5.73c0,4.75,5.14,8.79,5.39,8.92a.86.86,0,0,0,.39.13.86.86,0,0,0,.39-.13c.25-.19,5.39-4.17,5.39-8.92A5.74,5.74,0,0,0,9,0ZM9,7.72A1.9,1.9,0,0,1,7.07,5.79a1.93,1.93,0,0,1,3.86,0A1.9,1.9,0,0,1,9,7.72Z"/>
    <path class="cls-1" d="M17.93,17.09,15.36,12a.62.62,0,0,0-.58-.38H14a17.41,17.41,0,0,1-3.85,4.11A1.8,1.8,0,0,1,9,16.06a1.8,1.8,0,0,1-1.16-.38A18.81,18.81,0,0,1,4,11.57H3.22a.62.62,0,0,0-.58.38L.07,17.09a.79.79,0,0,0,0,.64c.07.2.39.26.58.26h16.7a.78.78,0,0,0,.58-.32A.66.66,0,0,0,17.93,17.09Z"/>
  </g>
</svg>
