<svg id="Layer_1" data-name="Layer 1" xmlns="http://www.w3.org/2000/svg" width="40" height="40" viewBox="0 0 40 40">
  <defs>
    <style>
      .cls-1 {
        fill: #013042;
      }
    </style>
  </defs>
  <g>
    <path class="cls-1" d="M20,0A12.76,12.76,0,0,0,7.16,12.72c0,10.56,11.41,19.55,12,19.84a2.07,2.07,0,0,0,.86.28,2.07,2.07,0,0,0,.86-.28c.57-.43,12-9.28,12-19.84A12.76,12.76,0,0,0,20,0Zm0,17.13a4.2,4.2,0,0,1-4.28-4.28,4.28,4.28,0,1,1,8.56,0A4.2,4.2,0,0,1,20,17.15Z"/>
    <path class="cls-1" d="M39.84,38,34.13,26.56a1.38,1.38,0,0,0-1.29-.85H31.13a38.13,38.13,0,0,1-8.56,9.13,4.27,4.27,0,0,1-5.14,0,41.32,41.32,0,0,1-8.56-9.13H7.16a1.38,1.38,0,0,0-1.29.85L.16,38a1.7,1.7,0,0,0,0,1.43c.15.43.86.57,1.29.57h37.1a1.72,1.72,0,0,0,1.29-.72A1.38,1.38,0,0,0,39.84,38Z"/>
  </g>
</svg>
