<svg id="Layer_1" data-name="Layer 1" xmlns="http://www.w3.org/2000/svg" width="18" height="18" viewBox="0 0 18 18">
  <defs>
    <style>
      .cls-1 {
        fill: #fff;
      }
    </style>
  </defs>
  <g>
    <path class="cls-1" d="M9,5.68A3.36,3.36,0,0,0,6,3.6v.6A2.83,2.83,0,0,1,8.69,6.9h-1L9,8.7l1.35-1.8h-1A2.83,2.83,0,0,1,12,4.2V3.6A3.36,3.36,0,0,0,9,5.68ZM13.11,11,13,9.83a.6.6,0,0,0-.59-.53H5.63A.6.6,0,0,0,5,9.83L4.89,11a.9.9,0,0,0,.79,1h0a.86.86,0,0,0,.81-.45.86.86,0,0,0,1.61-.41A.85.85,0,0,0,9,12H9a.85.85,0,0,0,.86-.86.86.86,0,0,0,.86.86.85.85,0,0,0,.75-.45.86.86,0,0,0,.81.45.89.89,0,0,0,.79-1Zm-.51,7V12.56a1.39,1.39,0,0,1-1.09-.18,1.4,1.4,0,0,1-1.61-.07A1.42,1.42,0,0,1,9,12.6H9a1.42,1.42,0,0,1-.86-.29,1.4,1.4,0,0,1-1.61.07,1.39,1.39,0,0,1-1.09.18V18H7.8V15h2.4v3Z"/>
    <polygon class="cls-1" points="12.9 0 12 1.5 12.6 1.5 12.6 5.1 14.1 5.1 14.1 3.3 15.9 3.3 15.9 5.1 17.4 5.1 17.4 1.5 18 1.5 17.1 0 12.9 0"/>
    <polygon class="cls-1" points="0.9 0 0 1.5 0.6 1.5 0.6 5.1 2.1 5.1 2.1 3.3 3.9 3.3 3.9 5.1 5.4 5.1 5.4 1.5 6 1.5 5.1 0 0.9 0"/>
  </g>
</svg>
