<svg id="Layer_1" data-name="Layer 1" xmlns="http://www.w3.org/2000/svg" width="40" height="40" viewBox="0 0 40 40">
  <defs>
    <style>
      .cls-1 {
        fill: #013042;
      }
    </style>
  </defs>
  <g id="_255_Custom_Content_Video_User_Interface_Web" data-name="255, Custom Content, Video, User Interface, Web">
    <g>
      <path class="cls-1" d="M22,16.78,18.8,14.91a.82.82,0,0,0-.83,0,.84.84,0,0,0-.42.72v3.74a.84.84,0,0,0,1.25.72L22,18.22a.83.83,0,0,0,0-1.44Zm-2.81,1.14v-.84l.73.42Z"/>
      <path class="cls-1" d="M36.67,0H3.33A.83.83,0,0,0,2.5.83V39.17a.83.83,0,0,0,.83.83H36.67a.83.83,0,0,0,.83-.83V.83A.83.83,0,0,0,36.67,0Zm-.84,1.67V3.33H17.5a.84.84,0,0,0-.83.84A.83.83,0,0,0,17.5,5H35.83V6.67H4.17v-5ZM4.17,38.33v-30H35.83v30Z"/>
      <circle class="cls-1" cx="11.67" cy="4.17" r="0.83"/>
      <circle class="cls-1" cx="9.17" cy="4.17" r="0.83"/>
      <circle class="cls-1" cx="6.67" cy="4.17" r="0.83"/>
      <path class="cls-1" d="M33.33,10H6.67a.84.84,0,0,0-.84.83v25a.85.85,0,0,0,.84.84H33.33a.85.85,0,0,0,.84-.84v-25A.84.84,0,0,0,33.33,10ZM32.5,35H7.5V11.67h25Z"/>
      <rect class="cls-1" x="8.33" y="24.17" width="6.67" height="1.67"/>
      <rect class="cls-1" x="8.33" y="26.67" width="13.33" height="1.67"/>
      <rect class="cls-1" x="8.33" y="30" width="6.67" height="1.67"/>
      <rect class="cls-1" x="8.33" y="32.5" width="13.33" height="1.67"/>
      <path class="cls-1" d="M9.17,22.5H30.83a.84.84,0,0,0,.84-.83V13.33a.84.84,0,0,0-.84-.83H9.17a.84.84,0,0,0-.84.83v8.34A.84.84,0,0,0,9.17,22.5ZM10,14.17H30v6.66H10Z"/>
      <path class="cls-1" d="M30.83,23.33H24.17a.85.85,0,0,0-.84.84V27.5a.84.84,0,0,0,.84.83h6.66a.84.84,0,0,0,.84-.83V24.17A.85.85,0,0,0,30.83,23.33ZM30,26.67H25V25h5Z"/>
      <path class="cls-1" d="M30.83,29.17H24.17a.84.84,0,0,0-.84.83v3.33a.85.85,0,0,0,.84.84h6.66a.85.85,0,0,0,.84-.84V30A.84.84,0,0,0,30.83,29.17ZM30,32.5H25V30.83h5Z"/>
      <rect class="cls-1" x="15.83" y="24.17" width="1.67" height="1.67"/>
      <rect class="cls-1" x="15.83" y="30" width="1.67" height="1.67"/>
    </g>
  </g>
</svg>
