<svg id="Layer_1" data-name="Layer 1" xmlns="http://www.w3.org/2000/svg" width="18" height="18" viewBox="0 0 18 18">
  <defs>
    <style>
      .cls-1 {
        fill: #fff;
      }
    </style>
  </defs>
  <g id="_255_Custom_Content_Video_User_Interface_Web" data-name="255, Custom Content, Video, User Interface, Web">
    <g>
      <path class="cls-1" d="M9.91,7.55,8.46,6.71a.35.35,0,0,0-.37,0A.37.37,0,0,0,7.9,7V8.71A.37.37,0,0,0,8.09,9a.35.35,0,0,0,.37,0L9.91,8.2a.37.37,0,0,0,.19-.33A.37.37,0,0,0,9.91,7.55Zm-1.26.52V7.68L9,7.87Z"/>
      <path class="cls-1" d="M16.5,0H1.5a.38.38,0,0,0-.38.37V17.63A.38.38,0,0,0,1.5,18h15a.38.38,0,0,0,.38-.37V.37A.38.38,0,0,0,16.5,0Zm-.37.75V1.5H7.88a.38.38,0,1,0,0,.75h8.25V3H1.87V.75ZM1.87,17.25V3.75H16.13v13.5Z"/>
      <circle class="cls-1" cx="5.25" cy="1.87" r="0.37"/>
      <circle class="cls-1" cx="4.13" cy="1.87" r="0.37"/>
      <circle class="cls-1" cx="3" cy="1.87" r="0.37"/>
      <path class="cls-1" d="M15,4.5H3a.38.38,0,0,0-.38.37V16.13A.38.38,0,0,0,3,16.5H15a.38.38,0,0,0,.38-.37V4.87A.38.38,0,0,0,15,4.5Zm-.37,11.25H3.37V5.25H14.63Z"/>
      <rect class="cls-1" x="3.75" y="10.87" width="3" height="0.75"/>
      <rect class="cls-1" x="3.75" y="12" width="6" height="0.75"/>
      <rect class="cls-1" x="3.75" y="13.5" width="3" height="0.75"/>
      <rect class="cls-1" x="3.75" y="14.62" width="6" height="0.75"/>
      <path class="cls-1" d="M4.13,10.12h9.75a.37.37,0,0,0,.37-.37V6a.38.38,0,0,0-.37-.38H4.13A.38.38,0,0,0,3.75,6V9.75A.37.37,0,0,0,4.13,10.12ZM4.5,6.37h9v3h-9Z"/>
      <path class="cls-1" d="M13.88,10.5h-3a.38.38,0,0,0-.37.37v1.5a.38.38,0,0,0,.37.38h3a.38.38,0,0,0,.37-.38v-1.5A.38.38,0,0,0,13.88,10.5ZM13.5,12H11.25v-.75H13.5Z"/>
      <path class="cls-1" d="M13.88,13.12h-3a.38.38,0,0,0-.37.38V15a.37.37,0,0,0,.37.37h3a.37.37,0,0,0,.37-.37V13.5A.38.38,0,0,0,13.88,13.12Zm-.38,1.5H11.25v-.75H13.5Z"/>
      <rect class="cls-1" x="7.13" y="10.87" width="0.75" height="0.75"/>
      <rect class="cls-1" x="7.13" y="13.5" width="0.75" height="0.75"/>
    </g>
  </g>
</svg>
