<svg id="Layer_1" data-name="Layer 1" xmlns="http://www.w3.org/2000/svg" width="40" height="40" viewBox="0 0 40 40">
  <defs>
    <style>
      .cls-1 {
        fill: #013042;
      }
    </style>
  </defs>
  <g>
    <path class="cls-1" d="M11.76,27.45h1.68a3.13,3.13,0,0,1,6.06,0H29.92a3.12,3.12,0,0,1,6,0h3.64a.39.39,0,0,0,.39-.39V24.31H11.76ZM7.84,25.88a2.36,2.36,0,1,0,2.36,2.36A2.36,2.36,0,0,0,7.84,25.88Zm0,2.75a.4.4,0,0,1,0-.79.4.4,0,1,1,0,.79ZM39.61,9.41H12.16a.4.4,0,0,0-.4.39V23.53H40V9.8A.4.4,0,0,0,39.61,9.41ZM22,15.69a.39.39,0,0,1-.78,0V14.9H18.82v3.92h2.36V17.25h-.79a.39.39,0,0,1-.39-.39.4.4,0,0,1,.39-.39h1.18a.39.39,0,0,1,.39.39v2.36a.39.39,0,0,1-.39.39H18.43a.39.39,0,0,1-.39-.39V14.51a.38.38,0,0,1,.39-.39h3.14a.38.38,0,0,1,.39.39Zm5.49-.4a.39.39,0,1,1-.78,0V14.9H24.31v1.57h2.75a.39.39,0,0,1,.39.39v2.36a.39.39,0,0,1-.39.39H23.92a.39.39,0,0,1-.39-.39v-.79a.39.39,0,1,1,.78,0v.39h2.36V17.25H23.92a.38.38,0,0,1-.39-.39V14.51a.38.38,0,0,1,.39-.39h3.14a.38.38,0,0,1,.39.39Zm5.49,0a.39.39,0,1,1-.78,0V14.9h-.79v4.32a.39.39,0,0,1-.78,0V14.9H29.8v.39a.39.39,0,0,1-.39.4.4.4,0,0,1-.39-.4v-.78a.39.39,0,0,1,.39-.39h3.14a.38.38,0,0,1,.39.39Z"/>
    <path class="cls-1" d="M16.47,25.88a2.36,2.36,0,1,0,2.35,2.36A2.36,2.36,0,0,0,16.47,25.88Zm0,2.75a.4.4,0,1,1,.39-.39A.39.39,0,0,1,16.47,28.63Zm16.47-2.75a2.36,2.36,0,1,0,2.35,2.36A2.36,2.36,0,0,0,32.94,25.88Zm0,2.75a.4.4,0,1,1,.39-.39A.39.39,0,0,1,32.94,28.63ZM5.17,13.16l-2,6.52L.67,21.88A2,2,0,0,0,0,23.36v2.13a2,2,0,0,0,2,2H4.82a3.12,3.12,0,0,1,6,0H11V11.76H7A2,2,0,0,0,5.17,13.16ZM2,25.1H.78v-.79H2a.4.4,0,0,1,0,.79ZM9,22H7.45a.39.39,0,1,1,0-.78H9A.39.39,0,0,1,9,22Zm.39-2.35H4L5.46,14.9h4Z"/>
    <rect class="cls-1" x="16.21" y="13.7" width="17.98" height="7.06"/>
  </g>
</svg>
