<svg id="Layer_1" data-name="Layer 1" xmlns="http://www.w3.org/2000/svg" width="18" height="18" viewBox="0 0 18 18">
  <defs>
    <style>
      .cls-1 {
        fill: #fff;
      }
    </style>
  </defs>
  <g>
    <path class="cls-1" d="M5.29,12.35h.76a1.42,1.42,0,0,1,1.36-1.06,1.41,1.41,0,0,1,1.36,1.06h4.69a1.41,1.41,0,0,1,2.73,0h1.63a.18.18,0,0,0,.18-.17V10.94H5.29Zm-1.76-.7a1.06,1.06,0,1,0,1.06,1.06A1.06,1.06,0,0,0,3.53,11.65Zm0,1.23a.18.18,0,0,1-.18-.17.18.18,0,1,1,.36,0A.18.18,0,0,1,3.53,12.88ZM17.82,4.24H5.47a.17.17,0,0,0-.18.17v6.18H18V4.41A.17.17,0,0,0,17.82,4.24ZM9.88,7.06a.18.18,0,0,1-.17.18.18.18,0,0,1-.18-.18V6.71H8.47V8.47H9.53V7.76H9.18A.17.17,0,0,1,9,7.59a.18.18,0,0,1,.18-.18h.53a.18.18,0,0,1,.17.18V8.65a.18.18,0,0,1-.17.17H8.29a.18.18,0,0,1-.17-.17V6.53a.18.18,0,0,1,.17-.18H9.71a.18.18,0,0,1,.17.18Zm2.47-.18a.18.18,0,0,1-.17.18A.18.18,0,0,1,12,6.88V6.71H10.94v.7h1.24a.18.18,0,0,1,.17.18V8.65a.18.18,0,0,1-.17.17H10.76a.18.18,0,0,1-.17-.17V8.29a.18.18,0,0,1,.17-.17.18.18,0,0,1,.18.17v.18H12V7.76H10.76a.17.17,0,0,1-.17-.17V6.53a.18.18,0,0,1,.17-.18h1.42a.18.18,0,0,1,.17.18Zm2.47,0a.18.18,0,0,1-.17.18.18.18,0,0,1-.18-.18V6.71h-.35V8.65a.18.18,0,0,1-.36,0V6.71h-.35v.17a.18.18,0,0,1-.17.18.18.18,0,0,1-.18-.18V6.53a.18.18,0,0,1,.18-.18h1.41a.18.18,0,0,1,.17.18Z"/>
    <path class="cls-1" d="M7.41,11.65a1.06,1.06,0,1,0,1.06,1.06A1.06,1.06,0,0,0,7.41,11.65Zm0,1.23a.17.17,0,0,1-.17-.17.17.17,0,0,1,.17-.18.18.18,0,0,1,.18.18A.18.18,0,0,1,7.41,12.88Zm7.41-1.23a1.06,1.06,0,1,0,1.06,1.06A1.06,1.06,0,0,0,14.82,11.65Zm0,1.23a.18.18,0,0,1-.17-.17.18.18,0,0,1,.17-.18.18.18,0,0,1,.18.18A.18.18,0,0,1,14.82,12.88Zm-12.49-7-.9,2.94L.3,9.85a.87.87,0,0,0-.3.66v1a.88.88,0,0,0,.88.88H2.17a1.4,1.4,0,0,1,2.72,0h.05V5.29H3.17A.88.88,0,0,0,2.33,5.92ZM.88,11.29H.35v-.35H.88a.18.18,0,0,1,.18.18A.17.17,0,0,1,.88,11.29ZM4.06,9.88H3.35a.18.18,0,0,1-.17-.17.18.18,0,0,1,.17-.18h.71a.18.18,0,0,1,.18.18A.18.18,0,0,1,4.06,9.88Zm.18-1.06H1.81L2.46,6.7H4.24Z"/>
    <rect class="cls-1" x="7.3" y="6.17" width="8.09" height="3.18"/>
  </g>
</svg>
