<svg id="Layer_1" data-name="Layer 1" xmlns="http://www.w3.org/2000/svg" width="18" height="18" viewBox="0 0 18 18">
  <defs>
    <style>
      .cls-1 {
        fill: #fff;
      }
    </style>
  </defs>
  <g id="_23-Delivered" data-name=" 23-Delivered">
    <path class="cls-1" d="M13.2,8.4A4.8,4.8,0,1,0,18,13.2,4.8,4.8,0,0,0,13.2,8.4Zm2.61,3.51-3,3a.29.29,0,0,1-.42,0h0l-1.5-1.5a.3.3,0,0,1,.42-.42h0l1.29,1.29,2.79-2.79a.3.3,0,1,1,.42.42ZM6.3,4.68l-.6-.6V0h4.8V4.08l-.6.6L9.21,4a.29.29,0,0,0-.42,0h0l-.69.69L7.41,4A.29.29,0,0,0,7,4H7ZM13.2,7.8a5.43,5.43,0,0,1,3,.91V.92A.92.92,0,0,0,15.28,0H11.1V4.2a.27.27,0,0,1-.09.21l-.9.9a.29.29,0,0,1-.42,0h0L9,4.62l-.69.69a.29.29,0,0,1-.42,0h0L7.2,4.62l-.69.69a.29.29,0,0,1-.42,0h0l-.9-.9A.27.27,0,0,1,5.1,4.2V0H.92A.92.92,0,0,0,0,.92V15.28a.92.92,0,0,0,.92.92H8.71a5.4,5.4,0,0,1,1.48-7.49A5.46,5.46,0,0,1,13.2,7.8ZM5.1,14.4h-3a.3.3,0,0,1,0-.6h3a.3.3,0,0,1,0,.6ZM1.8,12.6a.29.29,0,0,1,.3-.3H3.9a.3.3,0,1,1,0,.6H2.1a.29.29,0,0,1-.3-.3Zm3.3-1.2h-3a.3.3,0,0,1,0-.6h3a.3.3,0,1,1,0,.6Z"/>
  </g>
</svg>
