<svg id="Layer_1" data-name="Layer 1" xmlns="http://www.w3.org/2000/svg" width="40" height="40" viewBox="0 0 40 40">
  <defs>
    <style>
      .cls-1 {
        fill: #013042;
      }
    </style>
  </defs>
  <g id="_23-Delivered" data-name=" 23-Delivered">
    <path class="cls-1" d="M29.33,18.67A10.67,10.67,0,1,0,40,29.33,10.66,10.66,0,0,0,29.33,18.67Zm5.81,7.8-6.67,6.67a.66.66,0,0,1-.94,0h0L24.2,29.81a.67.67,0,0,1,.94-.95h0L28,31.73l6.2-6.2a.66.66,0,0,1,.94.94ZM14,10.39,12.67,9.06V0H23.33V9.06L22,10.39,20.47,8.86a.66.66,0,0,0-.94,0h0L18,10.39,16.47,8.86a.66.66,0,0,0-.94,0h0Zm15.33,6.94a12,12,0,0,1,6.67,2V2.05a2.05,2.05,0,0,0-2-2H24.67V9.33a.63.63,0,0,1-.2.47l-2,2a.66.66,0,0,1-.94,0h0L20,10.28,18.47,11.8a.65.65,0,0,1-.94,0h0L16,10.28,14.47,11.8a.65.65,0,0,1-.94,0h0l-2-2a.63.63,0,0,1-.2-.47V0H2.05A2.05,2.05,0,0,0,0,2.05V34a2.05,2.05,0,0,0,2.05,2H19.36a12,12,0,0,1,10-18.67ZM11.33,32H4.67a.67.67,0,1,1,0-1.33h6.66a.67.67,0,1,1,0,1.33ZM4,28a.67.67,0,0,1,.67-.67h4a.67.67,0,0,1,0,1.34h-4A.67.67,0,0,1,4,28Zm7.33-2.67H4.67a.67.67,0,1,1,0-1.33h6.66a.67.67,0,1,1,0,1.33Z"/>
  </g>
</svg>
