<svg id="Layer_1" data-name="Layer 1" xmlns="http://www.w3.org/2000/svg" width="18" height="18" viewBox="0 0 18 18">
  <defs>
    <style>
      .cls-1 {
        fill: #fff;
      }
    </style>
  </defs>
  <path class="cls-1" d="M4.58,5.84h12.6a.85.85,0,0,0,.9-.9.85.85,0,0,0-.9-.9H4.58a.85.85,0,0,0-.9.9A.85.85,0,0,0,4.58,5.84Zm12.6,2.7H4.58a.85.85,0,0,0-.9.9.85.85,0,0,0,.9.9h12.6a.85.85,0,0,0,.9-.9A.85.85,0,0,0,17.18,8.54Zm0,4.5H4.58a.9.9,0,0,0,0,1.8h12.6a.9.9,0,1,0,0-1.8ZM1.61,4.31c-.09-.09-.18-.18-.27-.18a.82.82,0,0,0-1,.18c-.09.09-.18.18-.18.27a1,1,0,0,0,0,.72c.09.09.09.18.18.27s.18.18.27.18A.54.54,0,0,0,1,5.84a.82.82,0,0,0,.63-.27c.09-.09.18-.18.18-.27a1,1,0,0,0,0-.72C1.79,4.49,1.7,4.4,1.61,4.31Zm0,4.5a.82.82,0,0,0-1-.18c-.09.09-.18.09-.27.18S.17,9,.17,9.08a1,1,0,0,0,0,.72c.09.09.09.18.18.27s.18.18.27.18a.54.54,0,0,0,.36.09.54.54,0,0,0,.36-.09c.09-.09.18-.09.27-.18s.18-.18.18-.27a1,1,0,0,0,0-.72C1.79,9,1.7,8.9,1.61,8.81Zm0,4.5c-.09-.09-.18-.18-.27-.18a1,1,0,0,0-.72,0c-.09,0-.18.09-.27.18s-.18.18-.18.27a.82.82,0,0,0,.18,1c.09.09.18.18.27.18a.54.54,0,0,0,.36.09.54.54,0,0,0,.36-.09c.09-.09.18-.09.27-.18a.82.82,0,0,0,.18-1C1.79,13.49,1.7,13.4,1.61,13.31Z"/>
</svg>
