<svg id="Layer_1" data-name="Layer 1" xmlns="http://www.w3.org/2000/svg" width="40" height="40" viewBox="0 0 40 40">
  <defs>
    <style>
      .cls-1, .cls-2 {
        fill: #013042;
      }

      .cls-2 {
        fill-rule: evenodd;
      }
    </style>
  </defs>
  <g>
    <path class="cls-1" d="M24.12.31a1.12,1.12,0,0,1,0,1.57L21.57,4.43,24.12,7a1.11,1.11,0,0,1-1.57,1.57L20,6,17.45,8.55A1.11,1.11,0,1,1,15.88,7l2.55-2.55L15.88,1.88A1.11,1.11,0,1,1,17.45.31L20,2.86,22.55.31A1.12,1.12,0,0,1,24.12.31ZM14.66,29.69a3.91,3.91,0,0,0,4.23-1.21V40L5.56,35V26.65Z"/>
    <path class="cls-2" d="M34.44,35,21.11,40V28.48a3.91,3.91,0,0,0,4.23,1.21l9.1-3Zm-4.09-2.28a1.11,1.11,0,0,0-.7-2.11l-5,1.67a1.11,1.11,0,0,0,.7,2.1Zm-10-22.66a1.11,1.11,0,0,0-.72,0l-14.45,5h0a1.05,1.05,0,0,0-.49.36L.24,21a1.11,1.11,0,0,0-.19,1,1.12,1.12,0,0,0,.71.74l15,5A1.12,1.12,0,0,0,17,27.29L20,23l3,4.25a1.12,1.12,0,0,0,1.26.42l15-5A1.12,1.12,0,0,0,39.76,21l-4.44-5.54a1.05,1.05,0,0,0-.49-.36h0ZM20,19.92,31.05,16.1,20,12.27,9,16.1Z"/>
  </g>
</svg>
