<svg id="Layer_1" data-name="Layer 1" xmlns="http://www.w3.org/2000/svg" width="18" height="18" viewBox="0 0 18 18">
  <defs>
    <style>
      .cls-1, .cls-2 {
        fill: #fff;
      }

      .cls-2 {
        fill-rule: evenodd;
      }
    </style>
  </defs>
  <g>
    <path class="cls-1" d="M10.85.14a.5.5,0,0,1,0,.71L9.71,2l1.14,1.15a.5.5,0,0,1,0,.71.5.5,0,0,1-.7,0L9,2.7,7.85,3.85a.5.5,0,0,1-.7,0,.5.5,0,0,1,0-.71L8.29,2,7.15.85a.5.5,0,0,1,0-.71.5.5,0,0,1,.7,0L9,1.29,10.15.14A.5.5,0,0,1,10.85.14ZM6.6,13.36a1.74,1.74,0,0,0,1.9-.55V18l-6-2.27V12Z"/>
    <path class="cls-2" d="M15.5,15.74,9.5,18v-5.2a1.74,1.74,0,0,0,1.9.55L15.5,12Zm-1.84-1a.5.5,0,0,0,.31-.63.49.49,0,0,0-.63-.32l-2.25.75a.5.5,0,0,0,.32,1ZM9.16,4.52a.58.58,0,0,0-.32,0L2.34,6.77h0a.53.53,0,0,0-.23.16l-2,2.49A.51.51,0,0,0,0,9.89a.52.52,0,0,0,.32.33l6.75,2.25a.51.51,0,0,0,.57-.19L9,10.37l1.34,1.91a.51.51,0,0,0,.57.19l6.75-2.25A.52.52,0,0,0,18,9.89a.51.51,0,0,0-.09-.46l-2-2.49a.5.5,0,0,0-.22-.16h0ZM9,9l5-1.73L9,5.52,4,7.24Z"/>
  </g>
</svg>
