<svg id="Layer_1" data-name="Layer 1" xmlns="http://www.w3.org/2000/svg" width="18" height="18" viewBox="0 0 18 18">
  <defs>
    <style>
      .cls-1 {
        fill: #fff;
        fill-rule: evenodd;
      }
    </style>
  </defs>
  <path class="cls-1" d="M9,.39,9.73.7,5.83,2.38l-.72-.31ZM10.49,1l.93.4-4,1.72a.29.29,0,0,0-.18.36V5.27L7,4.9a.29.29,0,0,0-.38-.1L6.25,5V2.85Zm1.69.73.72.31L9,3.74l-.72-.31Zm-7.52.76,1,.43V5.47a.3.3,0,0,0,.3.3.33.33,0,0,0,.13,0l.56-.28.63,1a.3.3,0,0,0,.4.14.28.28,0,0,0,.16-.22h0v0h0V3.89l.86.37V9.61l-4-1.74Zm8.7,0V7.86L9.3,9.61V4.26Zm-9,5.87.72.31L1.18,10.37l-.72-.31Zm9.31,0,.71.31-3.89,1.67-.72-.3ZM5.83,9l.93.4-4,1.72a.31.31,0,0,0-.18.29v1.83l-.24-.37A.3.3,0,0,0,2,12.8L1.59,13V10.85Zm9.3,0,.93.4-4,1.72a.3.3,0,0,0-.18.29v1.83l-.24-.37a.3.3,0,0,0-.39-.1l-.36.18V10.85Zm-7.61.72.72.31L4.35,11.74l-.72-.31Zm9.3,0,.72.31-3.89,1.68-.72-.31ZM0,10.52l1,.42v2.52a.3.3,0,0,0,.3.3.35.35,0,0,0,.14,0L2,13.45l.64,1a.3.3,0,0,0,.55-.17V11.89l.87.37v5.35L0,15.87Zm9.3,0,1,.42v2.52a.3.3,0,0,0,.3.3.35.35,0,0,0,.14,0l.55-.28.64,1a.29.29,0,0,0,.4.13.31.31,0,0,0,.16-.21h0v0h0V11.89l.87.37v5.35l-4-1.74Zm8.7,0v5.35L14,17.61V12.26Zm-9.3,0v5.35l-4,1.74V12.26ZM16,14.26a.2.2,0,0,0-.11,0l-1.16.49a.3.3,0,0,0,.24.56l1.16-.5a.3.3,0,0,0-.13-.58Zm.8.9h0a.23.23,0,0,0-.11,0l-2,.81a.3.3,0,0,0,.23.56l2-.82a.3.3,0,0,0-.12-.58Z"/>
</svg>
