<svg id="Layer_1" data-name="Layer 1" xmlns="http://www.w3.org/2000/svg" width="18" height="18" viewBox="0 0 18 18">
  <defs>
    <style>
      .cls-1 {
        fill: #fff;
      }
    </style>
  </defs>
  <path class="cls-1" d="M16.36,4.79a.18.18,0,0,0,0-.12h0l-.57-.56c-.43-.44-.87-.87-1.31-1.31L13,1.3l-1.05-1L11.72.06A.29.29,0,0,0,11.48,0H3.12a1.78,1.78,0,0,0-.94.14,1.06,1.06,0,0,0-.54.93V16.94a1.07,1.07,0,0,0,.93,1,4.82,4.82,0,0,0,.54,0H14.94a2.21,2.21,0,0,0,.68-.05,1.07,1.07,0,0,0,.74-1V4.79Zm-2.91,9.83H4.55a.39.39,0,1,1,0-.77h.6V10.26a.78.78,0,0,1,0-.34c.12-.24.42-.19.64-.19H7l0,0a.32.32,0,0,1,.19.23.14.14,0,0,1,0,.06h0v0h0v3.75H8v0s0-.07,0-.1v-.1c0-.11,0-.21,0-.31V7.68h0l0,0h0v0a.33.33,0,0,1,.24-.14H9.8a.18.18,0,0,1,.1,0h0l.06,0,0,0h0l0,0v0l0,0v0s0,0,0,0v0h0v6.1H11c0-.24,0-.49,0-.74V8.83a.76.76,0,0,1,0-.15.36.36,0,0,1,.39-.24h1.3a.44.44,0,0,1,.29.1.08.08,0,0,0,0,0,.1.1,0,0,1,0,.05.25.25,0,0,1,0,.07.09.09,0,0,1,0,.05v5.1h.41a.4.4,0,0,1,.39.39.39.39,0,0,1-.39.38Zm-.95-10h-.31l-.07,0s-.1,0,0,0h0l-.05,0,0,0-.06-.06,0,0h0l0,0,0-.06h0v0h0a.17.17,0,0,0,0-.07v0h0s0,0,0,0a.38.38,0,0,1,0-.1V1.32l.9.9,2.37,2.37Z"/>
</svg>
