<svg id="Layer_1" data-name="Layer 1" xmlns="http://www.w3.org/2000/svg" width="40" height="40" viewBox="0 0 40 40">
  <defs>
    <style>
      .cls-1 {
        fill: #013042;
      }
    </style>
  </defs>
  <g>
    <polygon class="cls-1" points="38.07 12.18 38.07 21.16 26.73 21.28 26.73 11.56 31.4 9.63 38.07 12.18"/>
    <polygon class="cls-1" points="32.65 10.07 32.65 21.22 38.07 21.16 38.07 12.18 32.65 10.07"/>
    <rect class="cls-1" x="30.65" y="15.67" width="3.43" height="2.8"/>
    <rect class="cls-1" x="30.65" y="15.67" width="1.81" height="2.8"/>
    <ellipse class="cls-1" cx="32.52" cy="11.44" rx="4.3" ry="5.3"/>
    <path class="cls-1" d="M32.52,6.14h0V16.73h0c2.37,0,4.3-2.36,4.3-5.29S34.89,6.14,32.52,6.14Z"/>
    <path class="cls-1" d="M34.33,7.39s-3.43.74-4.17,2.18-.13,3-1.06,3.67a15.78,15.78,0,0,0,1,2.62s-.62.56.19,1.31a2.17,2.17,0,0,1-1.37-.25s.81,1.62,1.74,1.81A2.79,2.79,0,0,1,28,16.86C27,14.8,26.23,10.75,27,9.07s3.05-6.73,7-4.55c0,0,1-.5,1.93.87A14.35,14.35,0,0,1,38,10.69a7.06,7.06,0,0,1-1.25,5.36,9.56,9.56,0,0,1-3.3,2.49,14.87,14.87,0,0,0,2.18-2.37l-.5-.37a6.21,6.21,0,0,0,.93-3.05C36.2,10.88,36.39,8,34.33,7.39Z"/>
    <path class="cls-1" d="M38,10.69A14,14,0,0,0,36,5.39C35,4,34,4.52,34,4.52a4.19,4.19,0,0,0-1.5-.5V8c.94-.31,1.81-.56,1.81-.56,2.06.62,1.87,3.43,1.74,5.36a6.21,6.21,0,0,1-.93,3l.5.37a18.29,18.29,0,0,1-2.18,2.37,10.57,10.57,0,0,0,3.3-2.49A7.32,7.32,0,0,0,38,10.69Z"/>
    <path class="cls-1" d="M39.94,22.9c.06-1.49-1-2.43-2.18-3.3a17.1,17.1,0,0,0-3.68-1.68l-1.62.56-1.62-.56a18.3,18.3,0,0,0-3.67,1.68C26,20.47,25,21.41,25,22.9s0,4.86,0,4.86h15S39.88,24.4,39.94,22.9Z"/>
    <path class="cls-1" d="M39.94,27.76H25.05s.06-3.36,0-4.86,1-2.43,2.18-3.3a8.48,8.48,0,0,1,1.68-.87,4.43,4.43,0,0,0,7.23,0,11,11,0,0,1,1.68.87C39,20.47,40,21.41,40,22.9S39.94,27.76,39.94,27.76Z"/>
    <path class="cls-1" d="M39.94,22.9c.06-1.49-1-2.43-2.18-3.3a8.58,8.58,0,0,0-1.69-.87,4.44,4.44,0,0,1-3.61,1.87h0v7.16h7.48S39.88,24.4,39.94,22.9Z"/>
    <ellipse class="cls-1" cx="12.58" cy="11.21" rx="1.18" ry="0.69" transform="translate(-1.4 20.63) rotate(-75.71)"/>
    <ellipse class="cls-1" cx="3.24" cy="11.23" rx="0.69" ry="1.18" transform="translate(-2.67 1.15) rotate(-14.29)"/>
    <rect class="cls-1" x="5.98" y="14.99" width="3.61" height="2.99"/>
    <rect class="cls-1" x="5.98" y="14.99" width="1.81" height="2.99"/>
    <ellipse class="cls-1" cx="7.91" cy="10.5" rx="4.55" ry="5.61"/>
    <path class="cls-1" d="M7.91,4.89h0V16.05h0c2.49,0,4.55-2.49,4.55-5.61S10.4,4.89,7.91,4.89Z"/>
    <path class="cls-1" d="M15.76,22.65c.07-1.56-1.06-2.62-2.3-3.49a21.67,21.67,0,0,0-3.86-1.8L7.91,18l-.12-.13-1.62-.43a17.68,17.68,0,0,0-3.86,1.8C1.06,20.1,0,21.16,0,22.71s0,5.11,0,5.11H15.7C15.76,27.76,15.76,24.21,15.76,22.65Z"/>
    <path class="cls-1" d="M15.76,22.65c.07-1.56-1.06-2.62-2.3-3.49a21.67,21.67,0,0,0-3.86-1.8l-1.81.43V27.7h8Z"/>
    <polygon class="cls-1" points="8.41 17.85 7.23 17.85 6.67 18.73 7.23 19.66 8.41 19.66 8.97 18.73 8.41 17.85"/>
    <polygon class="cls-1" points="8.97 18.73 8.41 17.85 7.79 17.85 7.79 19.66 8.41 19.66 8.97 18.73"/>
    <polygon class="cls-1" points="9.66 16.48 7.79 17.85 9.53 19.23 10.03 17.54 9.66 16.48"/>
    <polygon class="cls-1" points="5.98 16.48 7.79 17.85 6.11 19.23 5.61 17.61 5.98 16.48"/>
    <polygon class="cls-1" points="8.91 27.76 7.79 27.76 7.79 19.66 8.41 19.66 8.91 27.76"/>
    <polygon class="cls-1" points="7.79 27.76 6.73 27.76 7.23 19.66 7.79 19.66 7.79 27.76"/>
    <path class="cls-1" d="M12.65,7c-.25-2.43-1.12-3-2.93-3.3S5.36,3.27,3.86,4.83c-1.37,1.37-.56,6-.43,6.86,0,.06.06.12.18.12h.07a.13.13,0,0,0,.12-.12c.06-.44.31-2.06.37-2.75s-.06-1.37.57-1.43,2.43,1.62,5.66,0a.63.63,0,0,1,.75.69c0,.81.87,2.12.63,3.67,0,.13.06.19.18.19a.14.14,0,0,0,.13-.12A11.55,11.55,0,0,0,12.65,7Z"/>
    <path class="cls-1" d="M12.65,7c-.25-2.43-1.12-3-2.93-3.3a8.74,8.74,0,0,0-1.81-.19V8.2a5.85,5.85,0,0,0,2.62-.69.63.63,0,0,1,.75.69c0,.81.87,2.12.62,3.67a.17.17,0,0,0,.19.19.13.13,0,0,0,.12-.12A14.84,14.84,0,0,0,12.65,7Z"/>
    <g>
      <ellipse class="cls-1" cx="25.41" cy="15.73" rx="1.5" ry="0.81" transform="translate(3.9 36.47) rotate(-75.71)"/>
      <ellipse class="cls-1" cx="13.75" cy="15.72" rx="0.81" ry="1.5" transform="translate(-3.46 3.88) rotate(-14.29)"/>
      <rect class="cls-1" x="17.2" y="20.47" width="4.55" height="3.74"/>
      <rect class="cls-1" x="17.2" y="20.47" width="2.24" height="3.74"/>
      <ellipse class="cls-1" cx="19.63" cy="14.8" rx="5.67" ry="6.98"/>
      <path class="cls-1" d="M19.63,7.82h0v14h0c3.11,0,5.67-3.12,5.67-7S22.74,7.82,19.63,7.82Z"/>
      <path class="cls-1" d="M29.47,30c.06-1.93-1.31-3.24-2.87-4.36a24.27,24.27,0,0,0-4.79-2.24l-2.12.75L19.56,24l-2-.5a24.53,24.53,0,0,0-4.8,2.24c-1.56,1.13-2.93,2.43-2.87,4.37s0,6.41,0,6.41H29.53C29.47,36.42,29.41,31.94,29.47,30Z"/>
      <path class="cls-1" d="M29.47,30c.06-1.93-1.31-3.24-2.87-4.36a24.27,24.27,0,0,0-4.79-2.24L19.56,24v12.4h10C29.47,36.42,29.41,31.94,29.47,30Z"/>
      <path class="cls-1" d="M29.47,36.42h-10a38,38,0,0,0,2.62-12.83c.25.12.68.25,1.18.43a20,20,0,0,1,3.24,1.62c1.56,1.12,2.93,2.43,2.87,4.36S29.47,36.42,29.47,36.42Z"/>
      <polygon class="cls-1" points="20.19 24.02 18.75 24.02 18.07 25.14 18.75 26.27 20.19 26.27 20.93 25.14 20.19 24.02"/>
      <polygon class="cls-1" points="20.93 25.14 20.19 24.02 19.5 24.02 19.5 26.27 20.19 26.27 20.93 25.14"/>
      <polygon class="cls-1" points="21.75 22.34 19.5 23.96 21.62 25.7 22.24 23.65 21.75 22.34"/>
      <polygon class="cls-1" points="17.2 22.34 19.5 23.96 17.32 25.7 16.7 23.71 17.2 22.34"/>
      <polygon class="cls-1" points="20.81 36.42 19.5 36.42 19.5 26.27 20.19 26.27 20.81 36.42"/>
      <polygon class="cls-1" points="19.5 36.42 18.13 36.42 18.75 26.27 19.5 26.27 19.5 36.42"/>
      <path class="cls-1" d="M19.44,36.42H9.78S9.84,32,9.78,30s1.31-3.24,2.87-4.36a20.26,20.26,0,0,1,3-1.56c.44-.18.87-.31,1.18-.43a37.64,37.64,0,0,0,2.56,12.77Z"/>
      <path class="cls-1" d="M29.47,36.42h-10a38,38,0,0,0,2.62-12.83c.25.12.68.25,1.18.43a20,20,0,0,1,3.24,1.62c1.56,1.12,2.93,2.43,2.87,4.36S29.47,36.42,29.47,36.42Z"/>
      <path class="cls-1" d="M23.18,28.51l.43,1.43a14.21,14.21,0,0,1-4.11,6.48,38,38,0,0,0,2.62-12.83v-.32L23.3,24h0l.63,3.49Z"/>
      <path class="cls-1" d="M19.44,36.42h0a15.87,15.87,0,0,1-3.8-6.48l.43-1.43-.81-1,.44-3.36,1.18-.88v.44a37.63,37.63,0,0,0,2.56,12.71Zm5.42-26.17s1-1.31-1.87-2.8a7.77,7.77,0,0,0-8.1,1.12c-1.56,1.5-1.43,5.55-1.12,6.54.19.75.44,1.5.56,1.87.06.13.12.19.25.19s.31-.13.25-.31a25,25,0,0,1-.06-3.8,3.29,3.29,0,0,1,3.11-2.37c1.37.12,3.55.37,4.8-.19A8.44,8.44,0,0,1,23.8,13a14.41,14.41,0,0,1,.13,3.93.28.28,0,0,0,.24.31h.19c.13,0,.19-.06.25-.19C25,16.05,26.54,11.37,24.86,10.25Z"/>
      <path class="cls-1" d="M24.86,10.25s1-1.31-1.87-2.8a6.8,6.8,0,0,0-3.43-.69v4a7.47,7.47,0,0,0,3.18-.31,8.44,8.44,0,0,1,1.12,2.49A14.41,14.41,0,0,1,24,16.86a.28.28,0,0,0,.25.31h.12c.13,0,.19-.06.25-.19C25,16.05,26.54,11.37,24.86,10.25Z"/>
    </g>
  </g>
</svg>
