<svg id="Layer_1" data-name="Layer 1" xmlns="http://www.w3.org/2000/svg" width="40" height="40" viewBox="0 0 40 40">
  <defs>
    <style>
      .cls-1 {
        fill: #013042;
      }
    </style>
  </defs>
  <path class="cls-1" d="M11.2,0V19.2H30.4V0H25.6V7.2a.8.8,0,0,1-.8.8.77.77,0,0,1-.5-.18l-1.5-1.2-1.5,1.2a.78.78,0,0,1-1,0l-1.5-1.2-1.5,1.2a.81.81,0,0,1-1.13-.12A.82.82,0,0,1,16,7.2V0Zm6.4,0V5.53L18.3,5a.81.81,0,0,1,1,0l1.5,1.2L22.3,5a.81.81,0,0,1,1,0l.7.56V0ZM0,20.8V40H19.2V20.8H14.4V28a.8.8,0,0,1-.8.8.77.77,0,0,1-.5-.18l-1.5-1.2-1.5,1.2a.78.78,0,0,1-1,0l-1.5-1.2-1.5,1.2A.81.81,0,0,1,5,28.5.82.82,0,0,1,4.8,28V20.8Zm6.4,0v5.53l.7-.56a.81.81,0,0,1,1,0L9.6,27l1.5-1.2a.81.81,0,0,1,1,0l.7.56V20.8Zm14.4,0V40H40V20.8H35.2V28a.8.8,0,0,1-.8.8.77.77,0,0,1-.5-.18l-1.5-1.2-1.5,1.2a.78.78,0,0,1-1,0l-1.5-1.2-1.5,1.2a.81.81,0,0,1-1.13-.12.82.82,0,0,1-.17-.5V20.8Zm6.4,0v5.53l.7-.56a.81.81,0,0,1,1,0L30.4,27l1.5-1.2a.81.81,0,0,1,1,0l.7.56V20.8Z"/>
</svg>
