<svg id="Layer_1" data-name="Layer 1" xmlns="http://www.w3.org/2000/svg" width="40" height="40" viewBox="0 0 40 40">
  <defs>
    <style>
      .cls-1 {
        fill: #013042;
      }
    </style>
  </defs>
  <g>
    <path class="cls-1" d="M20,12.63A7.46,7.46,0,0,0,13.33,8V9.33a6.29,6.29,0,0,1,6,6H17l3,4,3-4H20.7a6.29,6.29,0,0,1,6-6V8A7.46,7.46,0,0,0,20,12.63Zm9.13,11.85-.32-2.64a1.33,1.33,0,0,0-1.32-1.17h-15a1.33,1.33,0,0,0-1.32,1.17l-.32,2.64a2,2,0,0,0,1.75,2.18h0a1.89,1.89,0,0,0,1.8-1A1.9,1.9,0,0,0,18,24.76a1.91,1.91,0,0,0,1.91,1.91h.18A1.91,1.91,0,0,0,22,24.76a1.9,1.9,0,0,0,3.58.91,1.89,1.89,0,0,0,1.8,1,2,2,0,0,0,1.75-2.18ZM28,40V27.9a3.06,3.06,0,0,1-2.43-.38A3.17,3.17,0,0,1,22,27.37a3.19,3.19,0,0,1-1.91.63h-.18A3.19,3.19,0,0,1,18,27.37a3.17,3.17,0,0,1-3.57.15A3.06,3.06,0,0,1,12,27.9V40h5.33V33.33h5.34V40Z"/>
    <polygon class="cls-1" points="28.67 0 26.67 3.33 28 3.33 28 11.33 31.33 11.33 31.33 7.33 35.33 7.33 35.33 11.33 38.67 11.33 38.67 3.33 40 3.33 38 0 28.67 0"/>
    <polygon class="cls-1" points="2 0 0 3.33 1.33 3.33 1.33 11.33 4.67 11.33 4.67 7.33 8.67 7.33 8.67 11.33 12 11.33 12 3.33 13.33 3.33 11.33 0 2 0"/>
  </g>
</svg>
