<svg id="Layer_1" data-name="Layer 1" xmlns="http://www.w3.org/2000/svg" width="18" height="18" viewBox="0 0 18 18">
  <defs>
    <style>
      .cls-1 {
        fill: #fff;
      }
    </style>
  </defs>
  <path class="cls-1" d="M7.46,1l1.63.7-6.92,3h0L.51,4l7-3ZM9.94,2.07l2,.85-7,3a.33.33,0,0,0-.2.41V9.88L3.94,8.8a.33.33,0,0,0-.42-.12l-.85.43V5.18Zm2.83,1.21L14.4,4,7.46,7l-1.64-.7,6.93-3ZM0,4.49l2,.85V9.65a.33.33,0,0,0,.33.33.37.37,0,0,0,.15,0l1.07-.54L4.7,11.14a.36.36,0,0,0,.34.18H5.1a.32.32,0,0,0,.23-.36V6.77l1.79.77v9.27L0,13.76V4.49Zm14.91,0v5.83a3.64,3.64,0,0,0-3.48,2.84h0l-.81.35-1.95.83a.33.33,0,1,0,.27.61l1.94-.83.46-.2a4,4,0,0,0,.21,1.28L7.79,16.81V7.53l7.12-3ZM15,11a3,3,0,0,1,2.12,5.12h0a3,3,0,0,1-4.24,0h0a3,3,0,0,1,0-4.24h0A3,3,0,0,1,15,11Zm0,.67a1.82,1.82,0,0,0-1.8,1.84A3.34,3.34,0,0,0,14,15.24c.24.33.49.65.76,1a.33.33,0,0,0,.47,0l0,0s.37-.43.75-1a3.36,3.36,0,0,0,.8-1.75A1.83,1.83,0,0,0,15,11.65Zm-4.27.5a.24.24,0,0,0-.12,0L8.66,13a.33.33,0,1,0,.27.61l1.94-.83A.33.33,0,0,0,10.73,12.15Zm4.27.16a1.15,1.15,0,0,1,1.13,1.18,4,4,0,0,1-.67,1.36,7,7,0,0,1-.46.59,5.37,5.37,0,0,1-.46-.59,3.87,3.87,0,0,1-.68-1.36A1.16,1.16,0,0,1,15,12.31ZM15,13a.34.34,0,1,0,.33.33A.34.34,0,0,0,15,13Z"/>
</svg>
